<?xml version="1.0" encoding="UTF-8" standalone="no"?>
<svg
   width="204"
   height="204"
   viewBox="0 0 204 204"
   fill="none"
   version="1.1"
   id="svg13"
   sodipodi:docname="meter1.svg"
   inkscape:version="1.2.2 (732a01da63, 2022-12-09)"
   xmlns:inkscape="http://www.inkscape.org/namespaces/inkscape"
   xmlns:sodipodi="http://sodipodi.sourceforge.net/DTD/sodipodi-0.dtd"
   xmlns="http://www.w3.org/2000/svg"
   xmlns:svg="http://www.w3.org/2000/svg">
  <sodipodi:namedview
     id="namedview15"
     pagecolor="#ffffff"
     bordercolor="#666666"
     borderopacity="1.0"
     inkscape:showpageshadow="2"
     inkscape:pageopacity="0.0"
     inkscape:pagecheckerboard="0"
     inkscape:deskcolor="#d1d1d1"
     showgrid="false"
     inkscape:zoom="2.5343137"
     inkscape:cx="77.535784"
     inkscape:cy="102.19729"
     inkscape:window-width="1366"
     inkscape:window-height="697"
     inkscape:window-x="-8"
     inkscape:window-y="-8"
     inkscape:window-maximized="1"
     inkscape:current-layer="svg13" />
  <path
     d="M187.639 69.9021C193.092 67.8586 199.226 70.6143 200.696 76.2484C206.238 97.4863 204.802 120.051 196.436 140.546C186.737 164.31 168.435 183.543 145.182 194.409C121.928 205.275 95.4333 206.975 70.9821 199.169C46.5309 191.364 25.9211 174.628 13.2642 152.299C0.607328 129.97 -3.16618 103.69 2.6965 78.7016C8.55918 53.7134 23.627 31.854 44.8941 17.4842C66.1612 3.11439 92.0641 -2.7094 117.435 1.17464C139.317 4.52444 159.415 14.8827 174.791 30.5466C178.869 34.702 178.083 41.3805 173.529 45.009C168.975 48.6374 162.385 47.8272 158.195 43.7832C146.212 32.2155 130.877 24.5642 114.244 22.0179C94.1181 18.9368 73.5701 23.5566 56.6994 34.9558C39.8288 46.355 27.8758 63.6955 23.2251 83.518C18.5744 103.34 21.5679 124.188 31.6082 141.901C41.6486 159.614 57.9979 172.89 77.3943 179.082C96.7908 185.274 117.809 183.925 136.255 175.305C154.701 166.686 169.219 151.429 176.914 132.578C183.273 116.999 184.584 99.9117 180.815 83.688C179.497 78.0164 182.187 71.9457 187.639 69.9021Z"
     fill="url(#paint0_linear_16_339)"
     id="path2"
     inkscape:export-filename="..\..\..\..\meter2.png"
     inkscape:export-xdpi="96"
     inkscape:export-ydpi="96" />
  <defs
     id="defs11">
    <linearGradient
       id="paint0_linear_16_339"
       x1="-12.4348"
       y1="91.2145"
       x2="228.124"
       y2="92.098"
       gradientUnits="userSpaceOnUse">
      <stop
         stop-color="#AA367C"
         id="stop6"
         offset="0"
         style="stop-color:#ef9dcf;stop-opacity:1;" />
      <stop
         offset="1"
         stop-color="#4A2FBD"
         id="stop8"
         style="stop-color:#d91c68;stop-opacity:1;" />
    </linearGradient>
  </defs>
  <text
     xml:space="preserve"
     style="font-style:normal;font-variant:normal;font-weight:bold;font-stretch:normal;font-size:40px;line-height:1.25;font-family:Ebrima;-inkscape-font-specification:'Ebrima, Bold';font-variant-ligatures:normal;font-variant-caps:normal;font-variant-numeric:normal;font-variant-east-asian:normal;fill:#ffffff;fill-opacity:1;stroke:none"
     x="61.555122"
     y="119.16441"
     id="text995"><tspan
       sodipodi:role="line"
       id="tspan993"
       x="61.555122"
       y="119.16441">80%</tspan></text>
</svg>
